<mxfile host="app.diagrams.net" modified="2024-03-11T04:14:36.921Z" agent="Mozilla/5.0 (Windows NT 10.0; Win64; x64) AppleWebKit/537.36 (KHTML, like Gecko) Chrome/122.0.0.0 Safari/537.36" version="24.0.4" etag="zqAIRnO4DZwsX0kjZ6w4" type="github">
  <diagram name="Trang-1" id="rhxVZSBuvuXVp0KG5OF7">
    <mxGraphModel>
      <root>
        <mxCell id="0" />
        <mxCell id="1" parent="0" />
      </root>
    </mxGraphModel>
  </diagram>
</mxfile>
